<svg width="108" height="108" viewBox="0 0 108 108" fill="none"
     xmlns="http://www.w3.org/2000/svg">
  <path
    d="M54 20
       C44 20 36 28 36 38
       C36 48 45 56 54 64
       C63 56 72 48 72 38
       C72 28 64 20 54 20

       M54 64
       C44 72 32 80 32 94
       C32 100 40 104 54 104
       C68 104 76 100 76 94
       C76 80 64 72 54 64"
    stroke="#FFFFFF"
    stroke-width="4.6"
    stroke-linecap="round"
    stroke-linejoin="round"
    fill="none"
  />
  <path
    d="M48 58
       C44 58 42 62 42 66
       C42 70 46 72 50 72
       C54 72 58 70 58 66
       C58 62 52 58 48 58"
    stroke="#FFFFFF"
    stroke-width="3.6"
    stroke-linecap="round"
    stroke-linejoin="round"
    fill="none"
  />
</svg>