<svg width="512" height="512" viewBox="0 0 512 512" fill="none"
     xmlns="http://www.w3.org/2000/svg">
  <path
    d="M256 104
       C220 104 192 132 192 168
       C192 204 224 232 256 260
       C288 232 320 204 320 168
       C320 132 292 104 256 104

       M256 260
       C220 292 176 324 176 376
       C176 416 208 448 256 448
       C304 448 336 416 336 376
       C336 324 292 292 256 260"
    stroke="#2E2E2E"
    stroke-width="18"
    stroke-linecap="round"
    stroke-linejoin="round"
    fill="none"
  />
  <path
    d="M232 228
       C220 228 212 240 212 252
       C212 264 224 272 236 272
       C248 272 260 264 260 252
       C260 240 244 228 232 228"
    stroke="#2E2E2E"
    stroke-width="14"
    stroke-linecap="round"
    stroke-linejoin="round"
    fill="none"
  />
</svg>