<svg width="1200" height="360" viewBox="0 0 1200 360" fill="none"
     xmlns="http://www.w3.org/2000/svg">
  <!-- Mark A -->
  <g transform="translate(80, -10)">
    <path
      d="M180 104
         C144 104 116 132 116 168
         C116 204 148 232 180 260
         C212 232 244 204 244 168
         C244 132 216 104 180 104

         M180 260
         C144 292 100 324 100 376
         C100 416 132 448 180 448
         C228 448 260 416 260 376
         C260 324 216 292 180 260"
      stroke="#2E2E2E"
      stroke-width="18"
      stroke-linecap="round"
      stroke-linejoin="round"
      fill="none"
    />
    <path
      d="M156 228
         C144 228 136 240 136 252
         C136 264 148 272 160 272
         C172 272 184 264 184 252
         C184 240 168 228 156 228"
      stroke="#2E2E2E"
      stroke-width="14"
      stroke-linecap="round"
      stroke-linejoin="round"
      fill="none"
    />
  </g>

  <!-- Wordmark -->
  <text x="460" y="215"
        font-family="Inter, Manrope, system-ui, -apple-system, Segoe UI, Roboto, Arial, sans-serif"
        font-size="132"
        font-weight="600"
        fill="#2E2E2E"
        letter-spacing="-2">
    My<tspan fill="#7A9BBE" font-weight="700">Kid</tspan>
  </text>
</svg>